<svg width="25" height="25" viewBox="0 0 25 25" fill="none" xmlns="http://www.w3.org/2000/svg">
<path d="M20.4531 1.80005H3.60938C2.1878 1.80005 1.03125 2.9566 1.03125 4.37817V21.2219C1.03125 22.6435 2.1878 23.8 3.60938 23.8H20.4531C21.8747 23.8 23.0312 22.6435 23.0312 21.2219V4.37817C23.0312 2.9566 21.8747 1.80005 20.4531 1.80005ZM21.3125 21.2219C21.3125 21.6958 20.927 22.0813 20.4531 22.0813H15.5547V15.0774H18.2097L18.6484 12.4133H15.5547V10.5657C15.5547 9.83628 16.1144 9.27661 16.8438 9.27661H18.6055V6.61255H16.8438C14.6557 6.61255 12.8916 8.38501 12.8916 10.5732V12.4133H10.3125V15.0774H12.8916V22.0813H3.60938C3.13552 22.0813 2.75 21.6958 2.75 21.2219V4.37817C2.75 3.90431 3.13552 3.5188 3.60938 3.5188H20.4531C20.927 3.5188 21.3125 3.90431 21.3125 4.37817V21.2219Z" fill="white"/>
</svg>
