<svg width="25" height="25" viewBox="0 0 25 25" fill="none" xmlns="http://www.w3.org/2000/svg">
<path d="M12.2482 23.8003C12.1754 23.8003 12.1025 23.8003 12.0292 23.8C10.3046 23.8042 8.7112 23.7604 7.16158 23.6661C5.74087 23.5796 4.44404 23.0886 3.41107 22.2464C2.41436 21.4336 1.73372 20.3347 1.38811 18.9804C1.08731 17.8014 1.07137 16.6441 1.05609 15.5247C1.04501 14.7215 1.0336 13.7698 1.03125 12.8019C1.0336 11.8301 1.04501 10.8783 1.05609 10.0752C1.07137 8.95591 1.08731 7.79857 1.38811 6.6194C1.73372 5.26516 2.41436 4.16623 3.41107 3.35348C4.44404 2.5112 5.74087 2.02023 7.16175 1.93378C8.71137 1.83962 10.3051 1.79564 12.0333 1.79983C13.7584 1.79614 15.3513 1.83962 16.9009 1.93378C18.3216 2.02023 19.6185 2.5112 20.6514 3.35348C21.6483 4.16623 22.3288 5.26516 22.6744 6.6194C22.9752 7.7984 22.9911 8.95591 23.0064 10.0752C23.0175 10.8783 23.0291 11.8301 23.0312 12.7979V12.8019C23.0291 13.7698 23.0175 14.7215 23.0064 15.5247C22.9911 16.6439 22.9754 17.8013 22.6744 18.9804C22.3288 20.3347 21.6483 21.4336 20.6514 22.2464C19.6185 23.0886 18.3216 23.5796 16.9009 23.6661C15.4169 23.7564 13.8925 23.8003 12.2482 23.8003ZM12.0292 22.0812C13.7256 22.0852 15.2833 22.0424 16.7965 21.9504C17.8708 21.8851 18.8022 21.5365 19.5653 20.9143C20.2706 20.339 20.7563 19.5454 21.009 18.5554C21.2594 17.574 21.2738 16.5202 21.2878 15.5012C21.2987 14.7034 21.3101 13.7584 21.3124 12.7999C21.3101 11.8413 21.2987 10.8965 21.2878 10.0987C21.2738 9.07962 21.2594 8.02584 21.009 7.04424C20.7563 6.05424 20.2706 5.26063 19.5653 4.6854C18.8022 4.06333 17.8708 3.7147 16.7965 3.64941C15.2833 3.55726 13.7256 3.51479 12.0332 3.51848C10.337 3.51445 8.77918 3.55726 7.26599 3.64941C6.19173 3.7147 5.26031 4.06333 4.49725 4.6854C3.79193 5.26063 3.30616 6.05424 3.05354 7.04424C2.80311 8.02584 2.78867 9.07945 2.77474 10.0987C2.76383 10.8971 2.75242 11.8427 2.75007 12.8019C2.75242 13.757 2.76383 14.7027 2.77474 15.5012C2.78867 16.5202 2.80311 17.574 3.05354 18.5554C3.30616 19.5454 3.79193 20.339 4.49725 20.9143C5.26031 21.5363 6.19173 21.885 7.26599 21.9503C8.77918 22.0424 10.3374 22.0854 12.0292 22.0812ZM11.9882 18.1712C9.0266 18.1712 6.6169 15.7617 6.6169 12.7999C6.6169 9.83815 9.0266 7.42862 11.9882 7.42862C14.95 7.42862 17.3595 9.83815 17.3595 12.7999C17.3595 15.7617 14.95 18.1712 11.9882 18.1712ZM11.9882 9.14744C9.97429 9.14744 8.33571 10.786 8.33571 12.7999C8.33571 14.8138 9.97429 16.4524 11.9882 16.4524C14.0023 16.4524 15.6407 14.8138 15.6407 12.7999C15.6407 10.786 14.0023 9.14744 11.9882 9.14744ZM17.9611 5.7098C17.2492 5.7098 16.672 6.28688 16.672 6.99892C16.672 7.71095 17.2492 8.28803 17.9611 8.28803C18.6731 8.28803 19.2502 7.71095 19.2502 6.99892C19.2502 6.28688 18.6731 5.7098 17.9611 5.7098Z" fill="white"/>
</svg>
