<svg width="25" height="25" viewBox="0 0 25 25" fill="none" xmlns="http://www.w3.org/2000/svg">
<path d="M21.9219 4.57837H2.14062C0.977516 4.57837 0.03125 5.52463 0.03125 6.68774V18.9119C0.03125 20.075 0.977516 21.0213 2.14062 21.0213H21.9219C23.085 21.0213 24.0312 20.075 24.0312 18.9119V6.68774C24.0312 5.52463 23.085 4.57837 21.9219 4.57837ZM21.6466 5.98462L21.365 6.21904L12.8682 13.2944C12.3832 13.6982 11.6792 13.6982 11.1943 13.2944L2.69745 6.21904L2.41592 5.98462H21.6466ZM1.4375 6.99984L8.36056 12.7647L1.4375 17.3722V6.99984ZM21.9219 19.615H2.14062C1.80087 19.615 1.51672 19.3728 1.45161 19.052L9.48809 13.7035L10.2945 14.3751C10.7977 14.794 11.4145 15.0035 12.0313 15.0035C12.6481 15.0035 13.2649 14.794 13.7681 14.3751L14.5745 13.7035L22.6109 19.052C22.5458 19.3728 22.2616 19.615 21.9219 19.615ZM22.625 17.3722L15.7019 12.7647L22.625 6.99984V17.3722Z" fill="white"/>
</svg>
