<svg width="25" height="25" viewBox="0 0 25 25" fill="none" xmlns="http://www.w3.org/2000/svg">
<path d="M16.5853 16.3372C12.5913 14.4914 7.00093 15.3078 6.76497 15.3434C6.23885 15.4229 5.87675 15.9137 5.95626 16.4398C6.03577 16.9659 6.52696 17.3277 7.0527 17.2485C7.10485 17.2406 12.302 16.4802 15.7769 18.0861C15.9077 18.1466 16.0453 18.1753 16.1805 18.1753C16.5445 18.1752 16.8929 17.968 17.0556 17.6159C17.2788 17.1329 17.0682 16.5604 16.5853 16.3372Z" fill="white"/>
<path d="M17.7073 12.8682C13.1714 10.772 6.81059 11.701 6.542 11.7414C6.01613 11.8209 5.65429 12.3115 5.73355 12.8373C5.81267 13.3633 6.3036 13.7257 6.82934 13.6467C6.88946 13.6376 12.8929 12.7659 16.899 14.6173C17.03 14.6778 17.1673 14.7064 17.3025 14.7064C17.6666 14.7063 18.0149 14.4991 18.1778 14.1469C18.4009 13.6639 18.1902 13.0914 17.7073 12.8682Z" fill="white"/>
<path d="M18.4625 9.24387C13.4522 6.92833 6.41528 7.95579 6.11817 8.00062C5.59231 8.08013 5.23046 8.57067 5.30972 9.09654C5.38897 9.62241 5.88003 9.98528 6.40551 9.90577C6.47269 9.89562 13.1736 8.92224 17.6542 10.9928C17.7849 11.0533 17.9225 11.082 18.0577 11.082C18.4218 11.082 18.7701 10.8747 18.9329 10.5226C19.1561 10.0395 18.9454 9.46712 18.4625 9.24387Z" fill="white"/>
<path d="M12.0313 0.800171C5.41441 0.800171 0.03125 6.1832 0.03125 12.7997C0.03125 19.4166 5.41441 24.7999 12.0313 24.7999C18.6481 24.7999 24.0312 19.4166 24.0312 12.7997C24.0312 6.1832 18.6481 0.800171 12.0313 0.800171ZM12.0313 22.8732C6.47681 22.8732 1.95798 18.3544 1.95798 12.7997C1.95798 7.24547 6.47681 2.72677 12.0313 2.72677C17.5857 2.72677 22.1045 7.24547 22.1045 12.7997C22.1045 18.3544 17.5857 22.8732 12.0313 22.8732Z" fill="white"/>
</svg>
