<svg width="25" height="25" viewBox="0 0 25 25" fill="none" xmlns="http://www.w3.org/2000/svg">
<path d="M20.4763 4.28528C18.2217 2.03912 15.2225 0.801331 12.0304 0.800049C8.84546 0.800049 5.84143 2.03674 3.57202 4.28235C1.29858 6.5318 0.0454102 9.52118 0.0424805 12.6889V12.6926V12.6948C0.0428467 14.6121 0.54657 16.5462 1.50275 18.3117L0.0752564 24.8L6.63831 23.3072C8.30054 24.1449 10.1552 24.5865 12.0258 24.5873H12.0306C15.215 24.5873 18.219 23.3504 20.4888 21.1046C22.7642 18.8533 24.0179 15.8678 24.0194 12.6981C24.0203 9.55066 22.7622 6.56293 20.4763 4.28528ZM12.0304 22.7141H12.0262C10.3466 22.7134 8.68231 22.2917 7.21362 21.4943L6.90326 21.3258L2.53912 22.3184L3.48706 18.0103L3.30432 17.6952C2.39575 16.1284 1.91565 14.3987 1.91565 12.6927C1.91913 7.17084 6.45612 2.67322 12.03 2.67322C14.7228 2.67432 17.2529 3.7182 19.1543 5.61224C21.0844 7.53558 22.147 10.0518 22.1461 12.6975C22.1439 18.2207 17.606 22.7141 12.0304 22.7141Z" fill="white"/>
<path d="M8.76825 7.44995H8.24274C8.05981 7.44995 7.76282 7.51843 7.5116 7.79181C7.26019 8.06537 6.55176 8.72656 6.55176 10.0713C6.55176 11.416 7.53448 12.7153 7.67145 12.8979C7.80859 13.0803 9.56842 15.9279 12.3557 17.0234C14.6721 17.9338 15.1436 17.7527 15.6462 17.7072C16.149 17.6617 17.2687 17.0461 17.4973 16.408C17.7258 15.7699 17.7258 15.2228 17.6573 15.1085C17.5886 14.9946 17.4057 14.9263 17.1316 14.7897C16.8573 14.653 15.5133 13.9806 15.2619 13.8892C15.0105 13.7982 14.8278 13.7526 14.6448 14.0264C14.4619 14.2996 13.9234 14.9316 13.7634 15.114C13.6035 15.2966 13.4435 15.3195 13.1692 15.1827C12.8949 15.0455 12.0208 14.7518 10.9732 13.8209C10.1578 13.0964 9.59204 12.1724 9.43201 11.8989C9.27216 11.6255 9.41498 11.4775 9.55249 11.3411C9.67572 11.2188 9.84216 11.0515 9.97931 10.892C10.1163 10.7323 10.1553 10.6184 10.2468 10.436C10.3382 10.2537 10.2924 10.094 10.2239 9.9574C10.1553 9.82062 9.62903 8.46912 9.38513 7.92859H9.38531C9.17987 7.47339 8.96362 7.45801 8.76825 7.44995Z" fill="white"/>
</svg>
