<svg width="25" height="25" viewBox="0 0 25 25" fill="none" xmlns="http://www.w3.org/2000/svg">
<path d="M12.0304 21.4717C12.0284 21.4717 12.0262 21.4717 12.024 21.4717C11.2998 21.4668 4.89769 21.4084 3.08385 20.9178C1.81621 20.5771 0.815536 19.5775 0.473862 18.3097C-0.000747811 16.5279 0.0294646 13.0974 0.0327605 12.8235C0.0296477 12.5508 -0.000930917 9.09198 0.472397 7.29553C0.472946 7.29388 0.473312 7.29205 0.473862 7.2904C0.811691 6.03705 1.83488 5.00653 3.08073 4.66486C3.08385 4.66394 3.08714 4.66321 3.09026 4.66229C4.88359 4.19098 11.2983 4.1333 12.024 4.12836H12.037C12.763 4.1333 19.1821 4.19171 20.9793 4.68298C22.2436 5.02283 23.2436 6.02112 23.5862 7.28729C24.0785 9.08502 24.0329 12.5514 24.028 12.844C24.0315 13.1322 24.0602 16.5319 23.5884 18.3227C23.588 18.3245 23.5874 18.3262 23.5871 18.3278C23.2452 19.5956 22.2447 20.5952 20.9756 20.9363C20.974 20.9369 20.9722 20.9373 20.9705 20.9378C19.1774 21.4089 12.7624 21.4666 12.037 21.4717C12.0348 21.4717 12.0326 21.4717 12.0304 21.4717ZM2.28477 7.77637C1.86803 9.36206 1.90739 12.7768 1.90776 12.8112V12.8359C1.89531 13.783 1.93907 16.5255 2.28496 17.8245C2.45268 18.4465 2.94615 18.9392 3.57201 19.1075C4.91032 19.4695 10.1246 19.5834 12.0304 19.5967C13.9411 19.5834 19.1631 19.4726 20.4915 19.1251C21.1153 18.9562 21.6072 18.4651 21.776 17.8424C22.1222 16.5244 22.1656 13.7952 22.153 12.8542C22.153 12.8444 22.153 12.8345 22.1532 12.8246C22.1704 11.8662 22.1365 9.09161 21.7776 7.78223C21.7773 7.78094 21.7769 7.77966 21.7767 7.77838C21.6083 7.15362 21.1146 6.66089 20.4888 6.49261C19.1634 6.13025 13.9407 6.01672 12.0304 6.00336C10.121 6.01672 4.9041 6.12732 3.57164 6.47449C2.95769 6.64477 2.45305 7.15509 2.28477 7.77637ZM22.6818 18.0839H22.6824H22.6818ZM9.64067 16.5967V9.00317L16.2032 12.8L9.64067 16.5967Z" fill="white"/>
</svg>
